<?xml version="1.0" standalone="no"?>
<!DOCTYPE svg PUBLIC "-//W3C//DTD SVG 20010904//EN"
 "http://www.w3.org/TR/2001/REC-SVG-20010904/DTD/svg10.dtd">
<svg version="1.0" xmlns="http://www.w3.org/2000/svg"
 width="124.000000pt" height="124.000000pt" viewBox="0 0 124.000000 124.000000"
 preserveAspectRatio="xMidYMid meet">
<metadata>
Created by potrace 1.14, written by Peter Selinger 2001-2017
</metadata>
<g transform="translate(0.000000,124.000000) scale(0.100000,-0.100000)"
fill="#000000" stroke="none">
<path d="M516 1148 c-8 -12 -13 -25 -10 -29 7 -13 -185 -184 -217 -192 -41
-11 -57 -48 -35 -82 16 -25 15 -28 -31 -131 -36 -81 -53 -108 -72 -116 -42
-16 -55 -56 -26 -87 20 -23 4 -244 -19 -270 -41 -45 6 -117 59 -93 14 7 25 18
25 27 0 13 28 15 208 15 195 0 209 -1 225 -20 18 -21 43 -25 66 -11 8 6 49 -6
115 -32 55 -22 103 -44 106 -47 3 -4 13 -9 23 -13 23 -9 77 42 77 72 0 35 89
214 120 243 42 38 37 93 -9 110 -13 5 -42 251 -30 263 13 13 11 59 -3 73 -7 7
-21 12 -33 12 -13 0 -42 25 -80 70 -56 66 -60 74 -57 115 3 38 0 46 -23 61
-23 15 -32 16 -61 5 -29 -10 -47 -9 -136 15 -64 17 -108 35 -116 46 -18 24
-48 23 -66 -4z m174 -77 c74 -20 106 -33 108 -44 3 -15 -124 -177 -138 -177
-3 0 -11 4 -19 9 -17 11 -74 242 -58 241 1 0 49 -13 107 -29z m-126 -98 c42
-165 42 -166 -94 -122 -56 19 -106 41 -110 50 -7 12 13 34 83 97 50 45 92 81
93 79 1 -1 14 -48 28 -104z m371 -73 c37 -45 66 -82 64 -84 -2 -2 -70 -6 -151
-8 -102 -4 -148 -2 -151 6 -7 20 124 166 148 166 15 0 43 -25 90 -80z m-468
-86 c69 -25 104 -42 108 -54 8 -25 -110 -191 -129 -184 -14 5 -96 228 -96 259
0 20 1 20 117 -21z m-109 -124 c22 -66 37 -120 32 -120 -5 0 -11 -8 -15 -18
-5 -18 -10 -18 -73 -7 -76 13 -92 20 -92 40 0 20 91 225 101 225 4 0 25 -54
47 -120z m621 23 c-70 -124 -106 -178 -120 -180 -16 -3 -172 220 -162 231 3 3
76 6 160 6 l154 0 -32 -57z m87 -226 c-2 -21 -7 -41 -9 -44 -10 -10 -128 40
-138 59 -10 18 18 75 100 203 l25 40 13 -110 c8 -60 12 -127 9 -148z m-324
129 c43 -61 74 -114 70 -118 -6 -6 -322 29 -330 37 -2 1 27 45 63 96 91 131
97 130 197 -15z m-422 -109 c36 -7 65 -15 65 -18 0 -12 -199 -224 -213 -228
-12 -2 -14 6 -9 50 4 30 7 80 7 111 0 46 4 61 22 78 25 23 38 24 128 7z m335
-33 c77 -9 144 -20 148 -24 13 -12 -110 -190 -131 -189 -16 0 -176 181 -188
213 -8 20 -2 20 171 0z m-125 -118 c46 -57 86 -108 88 -114 3 -10 -404 -29
-414 -19 -9 8 208 237 225 236 9 0 54 -47 101 -103z m525 44 c2 0 5 -7 8 -15
4 -8 -13 -54 -36 -103 -38 -80 -44 -88 -63 -80 -29 13 -71 197 -53 227 13 19
14 19 77 -5 35 -13 66 -24 67 -24z m-191 -7 c3 -10 14 -57 25 -105 18 -77 19
-90 6 -114 -8 -15 -12 -31 -9 -35 2 -4 -33 7 -78 26 -62 24 -84 38 -86 53 -4
24 105 192 124 192 7 0 15 -8 18 -17z"/>
</g>
</svg>
